<svg id="Grupo_6" data-name="Grupo 6" xmlns="http://www.w3.org/2000/svg" width="33.836" height="24.169" viewBox="0 0 33.836 24.169">
  <path id="Trazado_35" data-name="Trazado 35" d="M79.706,631.863,75.52,628.2,63.553,638.457a2.432,2.432,0,0,0,1.669.657H94.19a2.427,2.427,0,0,0,1.664-.657L83.893,628.2Z" transform="translate(-62.788 -614.944)" fill="#282a36"/>
  <path id="Trazado_36" data-name="Trazado 36" d="M95.863,606.733a2.434,2.434,0,0,0-1.669-.657H65.225a2.409,2.409,0,0,0-1.664.661l16.148,13.84Z" transform="translate(-62.792 -606.076)" fill="#282a36"/>
  <path id="Trazado_37" data-name="Trazado 37" d="M62.277,609.617V629.7l11.68-9.925Z" transform="translate(-62.277 -607.495)" fill="#282a36"/>
  <path id="Trazado_38" data-name="Trazado 38" d="M99.255,619.766l11.68,9.925V609.6Z" transform="translate(-77.1 -607.491)" fill="#282a36"/>
</svg>
