<svg id="logotipo-de-github" xmlns="http://www.w3.org/2000/svg" width="42" height="40.973" viewBox="0 0 42 40.973">
  <path id="Trazado_121" data-name="Trazado 121" d="M39.183,15.824a20.909,20.909,0,0,0-7.642-7.643A20.54,20.54,0,0,0,21,5.365,20.542,20.542,0,0,0,10.459,8.181a20.906,20.906,0,0,0-7.643,7.643A20.542,20.542,0,0,0,0,26.364,20.408,20.408,0,0,0,4.006,38.71,20.567,20.567,0,0,0,14.355,46.3a1.224,1.224,0,0,0,1.094-.191,1.069,1.069,0,0,0,.355-.82q0-.082-.014-1.476t-.014-2.433l-.629.109a8.022,8.022,0,0,1-1.518.1,11.563,11.563,0,0,1-1.9-.191A4.246,4.246,0,0,1,9.9,40.57a3.469,3.469,0,0,1-1.2-1.681l-.273-.629a6.832,6.832,0,0,0-.861-1.394,3.3,3.3,0,0,0-1.189-1.039l-.191-.137a2.007,2.007,0,0,1-.355-.328,1.5,1.5,0,0,1-.246-.383q-.082-.192.137-.315a1.773,1.773,0,0,1,.793-.122l.547.082a3.991,3.991,0,0,1,1.354.656A4.413,4.413,0,0,1,9.734,36.7a4.82,4.82,0,0,0,1.518,1.709A3.219,3.219,0,0,0,13.042,39a7.776,7.776,0,0,0,1.559-.136,5.438,5.438,0,0,0,1.23-.41,4.43,4.43,0,0,1,1.34-2.817,18.724,18.724,0,0,1-2.8-.492,11.16,11.16,0,0,1-2.57-1.067,7.361,7.361,0,0,1-2.2-1.832,8.8,8.8,0,0,1-1.435-2.871,13.653,13.653,0,0,1-.56-4.1,7.975,7.975,0,0,1,2.16-5.633,7.351,7.351,0,0,1,.191-5.578,3.832,3.832,0,0,1,2.352.369,16.441,16.441,0,0,1,2.283,1.053q.725.437,1.162.738a19.747,19.747,0,0,1,10.5,0l1.039-.656a14.715,14.715,0,0,1,2.515-1.2,3.583,3.583,0,0,1,2.216-.3,7.28,7.28,0,0,1,.218,5.578A7.977,7.977,0,0,1,34.4,25.27a13.805,13.805,0,0,1-.561,4.115,8.462,8.462,0,0,1-1.449,2.871,7.644,7.644,0,0,1-2.215,1.818,11.181,11.181,0,0,1-2.57,1.067,18.7,18.7,0,0,1-2.8.493,4.87,4.87,0,0,1,1.421,3.882v5.769a1.089,1.089,0,0,0,.342.82,1.188,1.188,0,0,0,1.08.191,20.564,20.564,0,0,0,10.35-7.588A20.413,20.413,0,0,0,42,26.363,20.558,20.558,0,0,0,39.183,15.824Z" transform="translate(0 -5.365)" fill="#282a36"/>
</svg>
