<svg xmlns="http://www.w3.org/2000/svg" width="42" height="41.971" viewBox="0 0 42 41.971">
  <path id="Trazado_66" data-name="Trazado 66" d="M309.605,379.522a2.03,2.03,0,0,1-.623,1.778l-5.913,5.868a3.326,3.326,0,0,1-1.046.756,4.3,4.3,0,0,1-1.266.4c-.03,0-.118.008-.267.022s-.341.022-.578.022a19.661,19.661,0,0,1-7.357-1.712,38.792,38.792,0,0,1-6.2-3.4,46.232,46.232,0,0,1-7.381-6.225,48.723,48.723,0,0,1-5.157-5.868,41.806,41.806,0,0,1-3.291-5.18,28.006,28.006,0,0,1-1.867-4.313,22.815,22.815,0,0,1-.844-3.334,11.023,11.023,0,0,1-.179-2.2c.03-.532.045-.829.045-.889a4.315,4.315,0,0,1,.4-1.266,3.316,3.316,0,0,1,.756-1.046l5.913-5.912a1.958,1.958,0,0,1,1.423-.623,1.651,1.651,0,0,1,1.022.334,3.1,3.1,0,0,1,.756.821l4.758,9.026a2.162,2.162,0,0,1,.223,1.555,2.774,2.774,0,0,1-.756,1.423l-2.178,2.178a.738.738,0,0,0-.156.289,1.086,1.086,0,0,0-.067.334,8.005,8.005,0,0,0,.8,2.134,19.459,19.459,0,0,0,1.645,2.6,28.845,28.845,0,0,0,3.158,3.534,29.245,29.245,0,0,0,3.557,3.18,20.551,20.551,0,0,0,2.6,1.668,6.869,6.869,0,0,0,1.6.644l.555.111a1.043,1.043,0,0,0,.289-.067.758.758,0,0,0,.289-.155l2.535-2.58a2.727,2.727,0,0,1,1.867-.711,2.32,2.32,0,0,1,1.2.267h.044l8.581,5.069A2.249,2.249,0,0,1,309.605,379.522Z" transform="translate(-267.625 -346.397)" fill="#282a36"/>
</svg>
